<?xml version="1.0" encoding="iso-8859-1"?>
<!-- Uploaded to: SVG Repo, www.svgrepo.com, Generator: SVG Repo Mixer Tools -->
<svg fill="#000000" height="800px" width="800px" version="1.1" id="Capa_1" xmlns="http://www.w3.org/2000/svg" xmlns:xlink="http://www.w3.org/1999/xlink" 
	 viewBox="0 0 346.163 346.163" xml:space="preserve">
<g>
	<g id="Layer_5_49_">
		<g>
			<g>
				<path d="M49.089,108.977c-2.602,0-5.171-1.19-6.838-3.442c-2.793-3.773-1.999-9.096,1.773-11.89l46.88-34.71
					c3.773-2.793,9.096-1.999,11.89,1.773c2.794,3.773,1.999,9.096-1.773,11.89l-46.88,34.71
					C52.619,108.434,50.846,108.977,49.089,108.977z"/>
			</g>
			<g>
				<path d="M53.72,153.587c-2.664,0-5.287-1.248-6.944-3.588c-2.713-3.831-1.807-9.136,2.023-11.849l100.449-71.145
					c3.833-2.712,9.136-1.807,11.85,2.024c2.713,3.831,1.807,9.136-2.023,11.849L58.626,152.023
					C57.134,153.08,55.418,153.587,53.72,153.587z"/>
			</g>
			<path d="M331.933,10.229H14.23C6.403,10.229,0,16.633,0,24.46v101.953v49v93.857c0,7.827,6.403,14.231,14.23,14.231h115.985
				c0,0,4.153-0.249,4.153,3.813c0,4.734,0,15.766,0,21.313c0,2.017-0.152,3.308-2.527,3.308c-7.555,0-30.219,0-30.219,0
				c-6.627,0-12,5.373-12,12c0,6.628,5.373,12,12,12h142.92c6.627,0,12-5.372,12-12c0-6.627-5.373-12-12-12c0,0-22.765,0-30.492,0
				c-1.75,0-2.254-1.064-2.254-2.287c0-4.985,0-17.819,0-23.021c0-3.188,2.982-3.126,2.982-3.126h117.154
				c7.827,0,14.231-6.404,14.231-14.231V24.46C346.164,16.633,339.76,10.229,331.933,10.229z M187.796,287.377
				c0,5.042,0,17.203,0,21.979c0,1.146-0.58,2.496-2.33,2.496c-6.297,0-18.027,0-24.813,0c-2.188,0-2.285-1.152-2.285-2.975
				c0-5.393,0-16.658,0-21.313c0-3.125,3.723-3.237,3.723-3.237h22.563C184.653,284.327,187.796,284.127,187.796,287.377z
				 M173.082,267.765c-7.734,0-14.003-6.27-14.003-14.003c0-7.734,6.269-14.003,14.003-14.003c7.733,0,14.003,6.269,14.003,14.003
				C187.085,261.495,180.815,267.765,173.082,267.765z M325.217,213.728c0,7.827-6.404,14.231-14.23,14.231H35.177
				c-7.827,0-14.23-6.404-14.23-14.231V47.983c0-7.827,6.403-14.231,14.23-14.231h275.81c7.826,0,14.23,6.404,14.23,14.231V213.728z
				"/>
		</g>
	</g>
</g>
</svg>